<svg id="Layer_1" data-name="Layer 1" xmlns="http://www.w3.org/2000/svg" viewBox="0 0 53.72 99.49"><defs><style>.cls-1{fill:#fff;}</style></defs><title>arrowArtboard 1</title><path class="cls-1" d="M34.91,99.34c-1,.37-1.79-.05-2.74,0C28.33,95.28,33.93,91.06,37,89c-1.47-2.09.52-4.79.8-7,1-8.18-.9-18.28-3.23-28.43C30.44,35.58,22.16,15.8,9.48,10.43c2.87,6.86,3.18,13.29,3.77,19.94a124.52,124.52,0,0,1-5.86,23c-1.13,2.94-1.92,6.39-5.28,6.67-4.17-3.33-1.15-5.56.39-8.82.33-.69.19-2,.62-3A64.34,64.34,0,0,0,6.48,38.1C8.15,30.86,8.27,24,5.8,17.18,4,12.28.82,8.59.4,5,.26,3.76,1.08.58,3.68,0,7.61-.77,14.86,9.42,18.49,6.82c.52,1,1.69.31,2,1.86,8.69.9,20.29,8.24,28.63,14,2.14,1.47,4.67,2.21,4.6,5,0,2-2.14,3.95-4.23,4.63C43,26.14,35,23.86,27.53,20.08,36,36.35,44.07,63.65,42.08,82.78c-.7,6.81-3.18,11-7.17,16.56"/></svg>